<svg width="30" height="28" viewBox="0 0 30 28" fill="none" xmlns="http://www.w3.org/2000/svg">
<path d="M14.0489 0.71536C14.3482 -0.206033 15.6518 -0.206033 15.9511 0.71536L18.6484 9.01865C18.7822 9.43071 19.1662 9.7097 19.5995 9.7097H28.3286C29.2973 9.7097 29.7001 10.9492 28.9165 11.5187L21.8541 16.6509C21.5037 16.9056 21.357 17.3569 21.4909 17.7688L24.1884 26.0727C24.4877 26.9941 23.4331 27.7602 22.6494 27.1907L15.5879 22.059C15.2373 21.8043 14.7627 21.8043 14.4121 22.059L7.35058 27.1907C6.56691 27.7602 5.51234 26.9941 5.81164 26.0727L8.50914 17.7688C8.64297 17.3569 8.49634 16.9056 8.14594 16.6509L1.08354 11.5187C0.299926 10.9492 0.702736 9.7097 1.67141 9.7097H10.4005C10.8338 9.7097 11.2178 9.43071 11.3516 9.01865L14.0489 0.71536Z" fill="#FFCC47"/>
</svg>
