<svg width="48" height="48" viewBox="0 0 48 48" fill="none" xmlns="http://www.w3.org/2000/svg">
<mask id="path-1-inside-1_62_5" fill="white">
<path fill-rule="evenodd" clip-rule="evenodd" d="M17.919 7C17.0691 7 16.312 7.53712 16.0312 8.3393L14.75 12H8C3.58172 12 0 15.5817 0 20V34C0 38.4183 3.58172 42 8 42H40C44.4183 42 48 38.4183 48 34V20C48 15.5817 44.4183 12 40 12H33.25L31.9688 8.3393C31.688 7.53713 30.9309 7 30.081 7H17.919Z"/>
</mask>
<path d="M16.0312 8.3393L18.8628 9.33035V9.33035L16.0312 8.3393ZM14.75 12V15H16.8784L17.5816 12.9911L14.75 12ZM33.25 12L30.4184 12.9911L31.1216 15H33.25V12ZM31.9688 8.3393L29.1372 9.33035V9.33035L31.9688 8.3393ZM18.8628 9.33035C18.7224 9.73144 18.3439 10 17.919 10V4C15.7942 4 13.9016 5.34281 13.1997 7.34825L18.8628 9.33035ZM17.5816 12.9911L18.8628 9.33035L13.1997 7.34825L11.9184 11.0089L17.5816 12.9911ZM8 15H14.75V9H8V15ZM3 20C3 17.2386 5.23858 15 8 15V9C1.92487 9 -3 13.9249 -3 20H3ZM3 34V20H-3V34H3ZM8 39C5.23858 39 3 36.7614 3 34H-3C-3 40.0751 1.92487 45 8 45V39ZM40 39H8V45H40V39ZM45 34C45 36.7614 42.7614 39 40 39V45C46.0751 45 51 40.0751 51 34H45ZM45 20V34H51V20H45ZM40 15C42.7614 15 45 17.2386 45 20H51C51 13.9249 46.0751 9 40 9V15ZM33.25 15H40V9H33.25V15ZM29.1372 9.33035L30.4184 12.9911L36.0816 11.0089L34.8003 7.34825L29.1372 9.33035ZM30.081 10C29.6561 10 29.2776 9.73144 29.1372 9.33035L34.8003 7.34825C34.0984 5.34281 32.2058 4 30.081 4V10ZM17.919 10H30.081V4H17.919V10Z" fill="#152C5B" mask="url(#path-1-inside-1_62_5)"/>
<circle cx="24" cy="27" r="6.5" stroke="#FF498B" stroke-width="3"/>
<path d="M38.9999 18.0225C34.3714 18.0095 33.0714 18.0058 33 18.0056" stroke="#152C5B" stroke-width="3" stroke-linecap="round" stroke-linejoin="round"/>
</svg>
