<svg width="48" height="48" viewBox="0 0 48 48" fill="none" xmlns="http://www.w3.org/2000/svg">
<path d="M30.5 40.5C30.5 41.6457 29.4516 43.1445 26.6771 44.4451C24.0221 45.6896 20.2488 46.5 16 46.5C11.7512 46.5 7.97793 45.6896 5.32294 44.4451C2.54839 43.1445 1.5 41.6457 1.5 40.5C1.5 39.3543 2.54839 37.8555 5.32294 36.5549C7.97793 35.3104 11.7512 34.5 16 34.5C20.2488 34.5 24.0221 35.3104 26.6771 36.5549C29.4516 37.8555 30.5 39.3543 30.5 40.5Z" stroke="#152C5B" stroke-width="3"/>
<path d="M28.5 12.1263C28.5 15.2064 27.0053 22.0975 24.5092 28.2616C23.2678 31.327 21.8217 34.102 20.2689 36.083C18.6703 38.1225 17.2164 39 16 39C14.7836 39 13.3297 38.1225 11.7311 36.083C10.1783 34.102 8.73217 31.327 7.49083 28.2616C4.99468 22.0975 3.5 15.2064 3.5 12.1263C3.5 6.45264 8.88687 1.5 16 1.5C23.1131 1.5 28.5 6.45264 28.5 12.1263Z" fill="white" stroke="#152C5B" stroke-width="3"/>
<circle cx="16" cy="14" r="4.5" stroke="#FF498B" stroke-width="3"/>
</svg>
